<svg width="64" height="64" viewBox="0 0 64 64" fill="none" xmlns="http://www.w3.org/2000/svg">
  <!-- Background -->
  <rect width="64" height="64" fill="#0a0a0a"/>
  
  <!-- Dallas Skyline Buildings -->
  <!-- Bank of America Plaza (tallest) -->
  <rect x="28" y="20" width="8" height="44" fill="#1a1a1a" stroke="#333" stroke-width="1"/>
  <rect x="29" y="22" width="6" height="2" fill="#333"/>
  <rect x="29" y="26" width="6" height="2" fill="#333"/>
  <rect x="29" y="30" width="6" height="2" fill="#333"/>
  <rect x="29" y="34" width="6" height="2" fill="#333"/>
  <rect x="29" y="38" width="6" height="2" fill="#333"/>
  <rect x="29" y="42" width="6" height="2" fill="#333"/>
  <rect x="29" y="46" width="6" height="2" fill="#333"/>
  <rect x="29" y="50" width="6" height="2" fill="#333"/>
  <rect x="29" y="54" width="6" height="2" fill="#333"/>
  <rect x="29" y="58" width="6" height="2" fill="#333"/>
  
  <!-- Reunion Tower -->
  <rect x="20" y="35" width="6" height="29" fill="#1a1a1a" stroke="#333" stroke-width="1"/>
  <circle cx="23" cy="35" r="3" fill="#1a1a1a" stroke="#333" stroke-width="1"/>
  
  <!-- Chase Tower -->
  <rect x="40" y="25" width="7" height="39" fill="#1a1a1a" stroke="#333" stroke-width="1"/>
  <rect x="41" y="27" width="5" height="1" fill="#333"/>
  <rect x="41" y="30" width="5" height="1" fill="#333"/>
  <rect x="41" y="33" width="5" height="1" fill="#333"/>
  <rect x="41" y="36" width="5" height="1" fill="#333"/>
  <rect x="41" y="39" width="5" height="1" fill="#333"/>
  <rect x="41" y="42" width="5" height="1" fill="#333"/>
  <rect x="41" y="45" width="5" height="1" fill="#333"/>
  <rect x="41" y="48" width="5" height="1" fill="#333"/>
  <rect x="41" y="51" width="5" height="1" fill="#333"/>
  <rect x="41" y="54" width="5" height="1" fill="#333"/>
  <rect x="41" y="57" width="5" height="1" fill="#333"/>
  <rect x="41" y="60" width="5" height="1" fill="#333"/>
  
  <!-- Fountain Place -->
  <rect x="12" y="40" width="6" height="24" fill="#1a1a1a" stroke="#333" stroke-width="1"/>
  <rect x="13" y="42" width="4" height="1" fill="#333"/>
  <rect x="13" y="45" width="4" height="1" fill="#333"/>
  <rect x="13" y="48" width="4" height="1" fill="#333"/>
  <rect x="13" y="51" width="4" height="1" fill="#333"/>
  <rect x="13" y="54" width="4" height="1" fill="#333"/>
  <rect x="13" y="57" width="4" height="1" fill="#333"/>
  <rect x="13" y="60" width="4" height="1" fill="#333"/>
  
  <!-- Comerica Bank Tower -->
  <rect x="50" y="30" width="6" height="34" fill="#1a1a1a" stroke="#333" stroke-width="1"/>
  <rect x="51" y="32" width="4" height="1" fill="#333"/>
  <rect x="51" y="35" width="4" height="1" fill="#333"/>
  <rect x="51" y="38" width="4" height="1" fill="#333"/>
  <rect x="51" y="41" width="4" height="1" fill="#333"/>
  <rect x="51" y="44" width="4" height="1" fill="#333"/>
  <rect x="51" y="47" width="4" height="1" fill="#333"/>
  <rect x="51" y="50" width="4" height="1" fill="#333"/>
  <rect x="51" y="53" width="4" height="1" fill="#333"/>
  <rect x="51" y="56" width="4" height="1" fill="#333"/>
  <rect x="51" y="59" width="4" height="1" fill="#333"/>
  
  <!-- Smaller buildings -->
  <rect x="2" y="45" width="4" height="19" fill="#1a1a1a" stroke="#333" stroke-width="1"/>
  <rect x="8" y="50" width="3" height="14" fill="#1a1a1a" stroke="#333" stroke-width="1"/>
  <rect x="36" y="50" width="4" height="14" fill="#1a1a1a" stroke="#333" stroke-width="1"/>
  <rect x="58" y="45" width="4" height="19" fill="#1a1a1a" stroke="#333" stroke-width="1"/>
  
  <!-- City lights -->
  <circle cx="31" cy="25" r="1" fill="#666"/>
  <circle cx="33" cy="25" r="1" fill="#666"/>
  <circle cx="35" cy="25" r="1" fill="#666"/>
  <circle cx="31" cy="28" r="1" fill="#666"/>
  <circle cx="33" cy="28" r="1" fill="#666"/>
  <circle cx="35" cy="28" r="1" fill="#666"/>
  
  <circle cx="22" cy="40" r="1" fill="#666"/>
  <circle cx="24" cy="40" r="1" fill="#666"/>
  <circle cx="22" cy="42" r="1" fill="#666"/>
  <circle cx="24" cy="42" r="1" fill="#666"/>
  
  <circle cx="42" cy="30" r="1" fill="#666"/>
  <circle cx="44" cy="30" r="1" fill="#666"/>
  <circle cx="42" cy="32" r="1" fill="#666"/>
  <circle cx="44" cy="32" r="1" fill="#666"/>
  
  <circle cx="52" cy="35" r="1" fill="#666"/>
  <circle cx="54" cy="35" r="1" fill="#666"/>
  <circle cx="52" cy="37" r="1" fill="#666"/>
  <circle cx="54" cy="37" r="1" fill="#666"/>
  
  <!-- Ground level -->
  <rect x="0" y="62" width="64" height="2" fill="#222"/>
</svg>
